<svg xmlns="http://www.w3.org/2000/svg" width="162.918" height="43.418" viewBox="0 0 162.918 43.418"><defs><style>.cls-1{opacity:0.9;}.cls-2{opacity:0.5;}.cls-3{fill:#fff;}</style></defs><g id="Layer_2" data-name="Layer 2"><g id="Layer_1-2" data-name="Layer 1"><g class="cls-1"><g class="cls-2"><path class="cls-3" d="M56.88,37.667a.647.647,0,0,1,.632.706c0,.681-.656.754-.972.754A2,2,0,0,1,54.326,37.4c-.024-.146-.048-.243-.121-.243-.024,0-.048.025-.1.073a5.06,5.06,0,0,1-4.059,2.043c-3.161,0-5.52-2.284-5.521-5.809A5.444,5.444,0,0,1,50.045,27.7a4.888,4.888,0,0,1,3.842,1.75c.122.17.2.291.244.291s.073-.121.073-.437c0-1.24.023-2.966.023-4.377,0-1.653,0-2.066-.973-2.066a2.984,2.984,0,0,0-.389.025h-.049a.625.625,0,0,1-.68-.632.722.722,0,0,1,.753-.73c.243,0,.584-.024.8-.024a1.768,1.768,0,0,1,1.945,2.017v.1c-.023,2.043-.047,5.981-.046,9.311,0,1.24,0,2.359,0,3.307,0,1.167.413,1.459.948,1.458.121,0,.219-.025.316-.025Zm-2.675-4.2c0-2.723-1.8-4.5-4.11-4.5-2.456,0-4.133,1.7-4.132,4.5,0,2.772,1.7,4.474,4.133,4.473A4.157,4.157,0,0,0,54.205,33.463Z"/><path class="cls-3" d="M67.429,37.495c-.024-.073-.049-.122-.1-.122a.131.131,0,0,0-.1.074A4.493,4.493,0,0,1,63.54,39.32c-2.455,0-3.939-1.677-3.939-3.355a3.248,3.248,0,0,1,2.6-3.015,39.049,39.049,0,0,1,4.5-1c.292-.049.389-.123.389-.292,0-.122.024-.268.024-.389,0-1.338-.559-2.382-2.528-2.382a3.829,3.829,0,0,0-2.845,1.168.677.677,0,0,1-.511.242.659.659,0,0,1-.68-.656c0-.924,2.041-1.969,4.131-1.97,2.262,0,3.794,1,3.8,3.719a6.7,6.7,0,0,1-.024.681c-.073.8-.122,2.066-.121,2.99,0,1.775.17,2.358,1.142,2.7a.619.619,0,0,1,.415.608.658.658,0,0,1-.657.68A2.069,2.069,0,0,1,67.429,37.495Zm-.365-3.719V33.46c0-.2-.073-.268-.243-.268h-.073c-3.817.609-5.835,1.1-5.834,2.8,0,1.02.973,2.041,2.6,2.041C64.755,38.03,67.064,37.52,67.064,33.776Z"/><path class="cls-3" d="M75.523,29.228c-.389,0-.389.048-.389.34,0,.924-.072,3.428-.072,5.227,0,1.9.049,3.185,1.945,3.184.219,0,.438-.024.681-.048h.1a.6.6,0,0,1,.585.631c0,.632-.584.754-1.556.755-3.112,0-3.113-2.649-3.113-3.719,0-1.556.047-4.522.047-5.713V29.5c0-.243-.073-.267-.243-.267H72.071a.646.646,0,1,1,0-1.289h1.41c.219,0,.267-.025.266-.243,0-.1.024-1.264.024-2.115v-.608a.706.706,0,1,1,1.411.048c0,.705-.049,2.65-.049,2.65,0,.267.05.267.366.267h2.163a.625.625,0,0,1,.681.632.632.632,0,0,1-.681.657Z"/><path class="cls-3" d="M88.53,37.49c-.025-.073-.049-.121-.1-.121a.129.129,0,0,0-.1.073,4.5,4.5,0,0,1-3.695,1.873c-2.455,0-3.94-1.677-3.94-3.354a3.25,3.25,0,0,1,2.6-3.016,39.106,39.106,0,0,1,4.5-1c.291-.049.389-.122.389-.292,0-.121.024-.267.023-.389,0-1.337-.559-2.382-2.528-2.382a3.831,3.831,0,0,0-2.844,1.168.681.681,0,0,1-.511.243.66.66,0,0,1-.681-.657c0-.924,2.042-1.969,4.132-1.97,2.262,0,3.794,1,3.8,3.72a6.422,6.422,0,0,1-.025.68c-.073.8-.121,2.066-.121,2.99,0,1.775.171,2.358,1.143,2.7a.616.616,0,0,1,.414.607.658.658,0,0,1-.656.681A2.07,2.07,0,0,1,88.53,37.49Zm-.366-3.719v-.316c0-.2-.073-.268-.243-.268h-.073c-3.816.609-5.834,1.1-5.833,2.8,0,1.021.972,2.041,2.6,2.041C85.856,38.026,88.165,37.515,88.164,33.771Z"/><path class="cls-3" d="M100.562,28.3c-.024.511-.024.851-.024,1.216,0,.34,0,.705.024,1.264v.049a.6.6,0,0,1-.607.583.624.624,0,0,1-.682-.632c0-1.945-2.163-1.944-2.309-1.944-1.265,0-1.97.754-1.97,1.557a1.872,1.872,0,0,0,1.193,1.6c.68.316,1.847.8,2.6,1.191a3.48,3.48,0,0,1,2.165,3.014c0,1.337-1.07,3.136-3.841,3.137a3.814,3.814,0,0,1-2.431-.8.31.31,0,0,0-.171-.1c-.048,0-.073.049-.073.122,0,.608-.291.681-.583.681a.585.585,0,0,1-.631-.583v-.049c.023-.535.047-.9.047-1.265s-.024-.729-.048-1.312v-.049a.638.638,0,0,1,.68-.632.623.623,0,0,1,.656.656c0,.171-.048.292-.048.462,0,.8,1.215,1.6,2.6,1.6,1.239,0,2.43-.706,2.43-1.873,0-1.288-1.07-1.871-3.891-3.038a2.939,2.939,0,0,1-1.97-2.7c0-1.41,1.142-2.8,3.306-2.8a3.923,3.923,0,0,1,2.14.655.179.179,0,0,0,.146.049c.122,0,.1-.218.122-.292a.547.547,0,0,1,.558-.389.568.568,0,0,1,.609.584Z"/><path class="cls-3" d="M114.2,38.992c-.631-.024-1.214-.048-1.75-.048s-1.069.024-1.629.049h-.048a.619.619,0,0,1-.657-.632.57.57,0,0,1,.656-.633c.632,0,.632-.146.632-.17a.187.187,0,0,0-.048-.1c-1.289-1.263-3.283-3.111-4.037-3.888a.868.868,0,0,0-.729-.291c-.365,0-.389.218-.389,1.483,0,.583,0,1.361.025,2.527a.372.372,0,0,0,.413.414,5.986,5.986,0,0,0,.681-.025h.024a.659.659,0,1,1,0,1.314h-.024c-.632-.025-1.265-.049-1.9-.048-.607,0-1.191.024-1.75.048a.628.628,0,0,1-.73-.631.67.67,0,0,1,.705-.682h.025c.291,0,.34.025.729.025a.384.384,0,0,0,.413-.414c.047-2.553.072-5.834.071-8.8,0-1.7-.025-3.331-.026-4.644,0-.681-.194-.948-.8-.972H103.5a.663.663,0,0,1-.681-.681c0-.632.438-.705,1.288-.705,1.994,0,2.164,1.288,2.164,1.823,0,3.136-.046,8.29-.046,8.29a.365.365,0,0,0,.413.389c.268,0,.365-.024,4.2-2.675.073-.049.1-.1.1-.122,0-.049-.049-.073-.171-.073-.438,0-1.021,0-1.021-.583a.619.619,0,0,1,.657-.633h.048c.608.025,1.143.025,1.7.025.535,0,1.119,0,1.75-.025a.592.592,0,0,1,.7.632.64.64,0,0,1-.68.632h-.025c-.34,0-.145-.024-.486-.024a1.16,1.16,0,0,0-.607.219c-1.435.973-3.306,2.237-4.5,3.016-.146.1-.195.17-.195.243,0,.169.632.753,5.033,4.788a.9.9,0,0,0,.7.291c.1,0,.22-.024.365-.024a.6.6,0,0,1,.681.632.648.648,0,0,1-.68.681Z"/><path class="cls-3" d="M122.247,39.306a5.432,5.432,0,0,1-5.5-5.736,5.558,5.558,0,0,1,5.42-5.884,4.53,4.53,0,0,1,4.791,3.985c0,.9-.534,1.58-1.774,1.63-.56.024-1.386.024-2.285.024-1.824,0-3.89-.023-4.425-.023-.243,0-.292.1-.292.438a3.971,3.971,0,0,0,4.085,4.277,4.353,4.353,0,0,0,3.525-1.605.69.69,0,0,1,.486-.218.743.743,0,0,1,.73.7C127.012,37.457,125.31,39.305,122.247,39.306ZM122.2,28.9a3.937,3.937,0,0,0-3.816,2.992c0,.243.219.243,3.039.243,1.264,0,2.626,0,3.307-.025.583-.025.8-.293.8-.682A3.055,3.055,0,0,0,122.2,28.9Z"/><path class="cls-3" d="M132.966,29.215c-.389,0-.389.048-.389.34,0,.923-.073,3.428-.073,5.226,0,1.9.05,3.185,1.946,3.185.219,0,.438-.024.681-.048h.1a.6.6,0,0,1,.584.631c0,.632-.583.754-1.556.754-3.112,0-3.113-2.649-3.113-3.718,0-1.556.047-4.523.047-5.714v-.389c0-.243-.072-.267-.242-.267h-1.434a.646.646,0,1,1,0-1.289h1.409c.219,0,.267-.024.267-.243,0-.1.024-1.264.024-2.115V24.96a.706.706,0,1,1,1.411.048c0,.706-.049,2.651-.049,2.651,0,.267.049.267.365.267H135.1a.645.645,0,1,1,0,1.289Z"/><path class="cls-3" d="M143.835,39.277a5.526,5.526,0,0,1-5.715-5.736c0-3.4,2.405-5.957,5.468-5.958a5.6,5.6,0,0,1,2.748.729c.049.024.073.048.122.048.073,0,.1-.146.122-.267.024-.292.315-.413.582-.413a.628.628,0,0,1,.706.607v.049c-.024.511-.024.875-.024,1.264,0,.365,0,.754.024,1.313v.048a.627.627,0,0,1-.7.609.645.645,0,0,1-.682-.583c-.024-.511.049-.8-.242-1.144a3.2,3.2,0,0,0-2.48-1,4.3,4.3,0,0,0-4.23,4.595,4.26,4.26,0,0,0,4.231,4.521,3.828,3.828,0,0,0,3.112-1.411.763.763,0,0,1,.632-.364.779.779,0,0,1,.778.753C148.283,37.647,146.46,39.276,143.835,39.277Z"/><path class="cls-3" d="M162.189,38.981c-.632-.024-1.264-.048-1.9-.048-.607,0-1.19.024-1.75.049a.628.628,0,0,1-.729-.632.668.668,0,0,1,.7-.681h.024c.316,0,.341.024.73.024a.377.377,0,0,0,.389-.414c0-.8.024-1.725.023-2.625,0-1.264-.024-2.407-.048-2.869a2.729,2.729,0,0,0-2.8-2.868,3.551,3.551,0,0,0-3.621,3.186c0,.461-.025,1.192-.025,2.066,0,.9.026,1.969.026,3.112a.371.371,0,0,0,.413.413,6.206,6.206,0,0,0,.68-.024.659.659,0,1,1,.026,1.313h-.025c-.632-.024-1.288-.049-1.9-.049s-1.216.025-1.775.05a.629.629,0,0,1-.729-.632.668.668,0,0,1,.7-.681h.024c.316,0,.389.024.778.024a.365.365,0,0,0,.389-.413c.024-1.97.048-5.033.047-7.95,0-2.067-.025-4.036-.026-5.5,0-.632-.194-.972-.826-1a4.783,4.783,0,0,0-.535.024h-.024a.663.663,0,0,1-.681-.68c0-.414.194-.73,1.24-.73a5.43,5.43,0,0,1,.608.048,1.7,1.7,0,0,1,1.652,1.848q0,.657,0,1.386c0,1.969-.023,4.157-.023,4.5,0,.073.024.122.048.122s.049-.024.1-.073a4.55,4.55,0,0,1,3.6-1.654,3.85,3.85,0,0,1,4.061,3.889c.025,1.02.05,3.816.05,5.737,0,.267.122.438.413.438.365,0,.34-.025.681-.025h.025a.658.658,0,1,1,0,1.313Z"/><path class="cls-3" d="M34.778,37.3,27.09,32.087V19.8a2.434,2.434,0,0,0-2.431-2.431H2.431A2.434,2.434,0,0,0,0,19.8v16.17a2.434,2.434,0,0,0,2.431,2.431h10.5L8.968,42.39a.6.6,0,0,0,.856.85L13.545,39.5l3.721,3.744a.6.6,0,1,0,.855-.85l-3.958-3.984h10.5a2.434,2.434,0,0,0,2.431-2.431v-2.43L34.1,38.3a.6.6,0,0,0,.677-1Zm-8.894-6.035-4.124-2.8a.6.6,0,1,0-.678,1l4.8,3.257v3.248A1.227,1.227,0,0,1,24.659,37.2H2.431a1.227,1.227,0,0,1-1.225-1.225V19.8a1.227,1.227,0,0,1,1.225-1.225H24.659A1.227,1.227,0,0,1,25.884,19.8Z"/></g><g class="cls-2"><path class="cls-3" d="M88.629,1.041a6.024,6.024,0,0,1,3.3.757,2.741,2.741,0,0,1,1.152,2.479A2.78,2.78,0,0,1,91.92,6.783a6.034,6.034,0,0,1-3.332.77h-.681v3.222H85.741V1.291a12.358,12.358,0,0,1,1.5-.194Q88.032,1.042,88.629,1.041Zm.139,1.847c-.157,0-.312,0-.465.014s-.285.019-.4.027V5.706h.681A3.69,3.69,0,0,0,90.281,5.4a1.173,1.173,0,0,0,.57-1.139,1.371,1.371,0,0,0-.146-.666,1.1,1.1,0,0,0-.416-.423,1.84,1.84,0,0,0-.66-.222A5.41,5.41,0,0,0,88.768,2.888Z"/><path class="cls-3" d="M101.307,7.11a4.739,4.739,0,0,1-.25,1.575,3.416,3.416,0,0,1-.722,1.222,3.262,3.262,0,0,1-1.132.785,4.05,4.05,0,0,1-2.944,0,3.258,3.258,0,0,1-1.131-.785,3.579,3.579,0,0,1-.736-1.222,4.519,4.519,0,0,1-.264-1.575A4.368,4.368,0,0,1,94.4,5.541a3.526,3.526,0,0,1,.75-1.208,3.374,3.374,0,0,1,1.138-.779,3.892,3.892,0,0,1,2.889,0,3.3,3.3,0,0,1,1.131.779,3.514,3.514,0,0,1,.737,1.208A4.48,4.48,0,0,1,101.307,7.11Zm-2.11,0A2.6,2.6,0,0,0,98.815,5.6a1.249,1.249,0,0,0-1.09-.549,1.266,1.266,0,0,0-1.1.549,2.566,2.566,0,0,0-.389,1.507,2.637,2.637,0,0,0,.389,1.52,1.259,1.259,0,0,0,1.1.563,1.242,1.242,0,0,0,1.09-.563A2.676,2.676,0,0,0,99.2,7.11Z"/><path class="cls-3" d="M107.326,6.582q-.277,1.055-.59,2.1t-.66,2.1h-1.61q-.25-.584-.543-1.389t-.606-1.756q-.313-.951-.641-2.013t-.633-2.146h2.18q.111.5.244,1.091c.089.393.182.8.28,1.215s.2.835.307,1.255.216.828.328,1.215q.181-.609.354-1.249t.334-1.257c.106-.412.208-.809.305-1.194s.183-.742.257-1.076h1.5q.111.5.251,1.076c.092.385.19.782.291,1.194s.208.832.32,1.257.226.843.347,1.249c.112-.387.223-.793.335-1.215s.217-.839.314-1.255.191-.822.28-1.215.17-.757.244-1.091h2.152q-.306,1.083-.634,2.146t-.64,2.013q-.314.951-.613,1.756t-.549,1.389h-1.611q-.348-1.056-.68-2.1T107.326,6.582Z"/><path class="cls-3" d="M113.388,7.179a4.476,4.476,0,0,1,.3-1.7,3.658,3.658,0,0,1,.785-1.215,3.274,3.274,0,0,1,1.118-.735,3.493,3.493,0,0,1,1.3-.251,3.225,3.225,0,0,1,2.458.952,3.918,3.918,0,0,1,.9,2.8q0,.18-.015.4c-.009.143-.018.271-.027.382h-4.694a1.373,1.373,0,0,0,.6,1.013,2.4,2.4,0,0,0,1.416.376,6.006,6.006,0,0,0,1.117-.105,4.058,4.058,0,0,0,.9-.258l.278,1.681a2.877,2.877,0,0,1-.445.166,5.735,5.735,0,0,1-.617.147c-.228.042-.47.076-.729.1a7.509,7.509,0,0,1-.778.041,4.569,4.569,0,0,1-1.715-.292,3.327,3.327,0,0,1-1.208-.8,3.191,3.191,0,0,1-.708-1.2A4.757,4.757,0,0,1,113.388,7.179Zm4.86-.792a2.133,2.133,0,0,0-.091-.514,1.25,1.25,0,0,0-.638-.763,1.318,1.318,0,0,0-.6-.125,1.382,1.382,0,0,0-.6.118,1.229,1.229,0,0,0-.417.312,1.381,1.381,0,0,0-.256.451,2.952,2.952,0,0,0-.133.521Z"/><path class="cls-3" d="M126.385,5.3c-.186-.046-.4-.093-.653-.145a4.024,4.024,0,0,0-.8-.076,3.761,3.761,0,0,0-.466.034,2.526,2.526,0,0,0-.409.078v5.581h-2.069V3.859a12.674,12.674,0,0,1,1.312-.367,7.606,7.606,0,0,1,1.687-.174c.111,0,.246.007.4.021s.314.032.472.055.315.052.472.084a2.281,2.281,0,0,1,.4.118Z"/><path class="cls-3" d="M127.5,7.179a4.476,4.476,0,0,1,.3-1.7,3.656,3.656,0,0,1,.784-1.215,3.284,3.284,0,0,1,1.118-.735,3.494,3.494,0,0,1,1.3-.251,3.228,3.228,0,0,1,2.458.952,3.922,3.922,0,0,1,.9,2.8c0,.12,0,.252-.014.4s-.019.271-.028.382H129.62a1.372,1.372,0,0,0,.6,1.013,2.4,2.4,0,0,0,1.416.376,6.025,6.025,0,0,0,1.118-.105,4.064,4.064,0,0,0,.895-.258l.278,1.681a2.86,2.86,0,0,1-.444.166,5.756,5.756,0,0,1-.618.147c-.227.042-.47.076-.729.1a7.509,7.509,0,0,1-.778.041,4.567,4.567,0,0,1-1.714-.292,3.327,3.327,0,0,1-1.208-.8,3.166,3.166,0,0,1-.708-1.2A4.729,4.729,0,0,1,127.5,7.179Zm4.86-.792a2.182,2.182,0,0,0-.091-.514,1.248,1.248,0,0,0-.639-.763,1.313,1.313,0,0,0-.6-.125,1.387,1.387,0,0,0-.6.118,1.229,1.229,0,0,0-.417.312,1.418,1.418,0,0,0-.256.451,3.038,3.038,0,0,0-.132.521Z"/><path class="cls-3" d="M142.533,10.539q-.277.084-.638.16c-.241.05-.493.1-.757.132s-.532.066-.806.09-.534.034-.784.034a4.617,4.617,0,0,1-1.611-.263,3.223,3.223,0,0,1-1.194-.758A3.266,3.266,0,0,1,136,8.741a4.567,4.567,0,0,1-.256-1.576,5.4,5.4,0,0,1,.221-1.6,3.522,3.522,0,0,1,.639-1.215,2.716,2.716,0,0,1,1.021-.763,3.4,3.4,0,0,1,1.381-.265,3.28,3.28,0,0,1,.771.084,4.313,4.313,0,0,1,.688.236V.334L142.533,0Zm-4.679-3.471a2.535,2.535,0,0,0,.43,1.541,1.49,1.49,0,0,0,1.278.584c.185,0,.356-.007.513-.022s.287-.03.39-.049V5.359a1.809,1.809,0,0,0-.508-.207,2.422,2.422,0,0,0-.631-.085Q137.853,5.067,137.854,7.068Z"/><path class="cls-3" d="M154.878,7.123a4.623,4.623,0,0,1-.257,1.583,3.346,3.346,0,0,1-.743,1.208,3.26,3.26,0,0,1-1.194.77,4.454,4.454,0,0,1-1.611.271c-.25,0-.511-.012-.784-.034s-.542-.054-.8-.09-.516-.082-.757-.132-.454-.1-.639-.16V.334L150.157,0V3.638a3.96,3.96,0,0,1,.722-.236,3.745,3.745,0,0,1,.805-.084,3.308,3.308,0,0,1,1.375.271,2.7,2.7,0,0,1,1,.771,3.464,3.464,0,0,1,.611,1.2A5.478,5.478,0,0,1,154.878,7.123Zm-2.111-.055q0-2-1.472-2a2.416,2.416,0,0,0-.631.085,1.777,1.777,0,0,0-.507.207V9.122c.1.019.231.035.389.049s.328.022.513.022a1.49,1.49,0,0,0,1.278-.584A2.535,2.535,0,0,0,152.767,7.068Z"/><path class="cls-3" d="M162.918,3.471q-.627,2.112-1.309,3.957t-1.489,3.583a8.29,8.29,0,0,1-.584,1.062,3.292,3.292,0,0,1-.64.722,2.254,2.254,0,0,1-.786.417,3.558,3.558,0,0,1-1.022.131,4.248,4.248,0,0,1-.9-.089,4.11,4.11,0,0,1-.675-.2l.362-1.652a3.565,3.565,0,0,0,.569.152,3.2,3.2,0,0,0,.529.042,1.156,1.156,0,0,0,.854-.3,2.417,2.417,0,0,0,.507-.826q-.709-1.389-1.417-3.118a38.677,38.677,0,0,1-1.334-3.881h2.194q.139.541.328,1.173t.4,1.278q.21.647.426,1.257t.412,1.11q.18-.5.376-1.11t.383-1.257q.188-.645.363-1.278t.314-1.173Z"/></g></g></g></g></svg>